<?xml version="1.0" encoding="utf-8"?>
<!-- Generator: Adobe Illustrator 16.0.0, SVG Export Plug-In . SVG Version: 6.00 Build 0)  -->
<!DOCTYPE svg PUBLIC "-//W3C//DTD SVG 1.1//EN" "http://www.w3.org/Graphics/SVG/1.1/DTD/svg11.dtd">
<svg version="1.1" id="Layer_1" xmlns="http://www.w3.org/2000/svg" xmlns:xlink="http://www.w3.org/1999/xlink" x="0px" y="0px"
	 width="157.5px" height="157.5px" viewBox="0 0 157.5 157.5" enable-background="new 0 0 157.5 157.5" xml:space="preserve">
<g>
	<path fill="none" d="M93.249,68.471c-0.645-0.082-1.293-0.121-1.936-0.121c-7.807,0-14.422,5.848-15.388,13.601
		c-1.061,8.493,4.983,16.266,13.477,17.328c0.642,0.08,1.296,0.12,1.942,0.12c7.803,0,14.422-5.846,15.388-13.601
		c0.513-4.107-0.608-8.172-3.158-11.449C101.021,71.071,97.357,68.983,93.249,68.471z"/>
	<g>
		<path fill="#CC2929" d="M90.063,98.619c8.511,1.062,16.268-4.976,17.333-13.483c1.062-8.506-4.976-16.265-13.487-17.327
			c-8.51-1.063-16.262,4.973-17.322,13.48C75.524,89.796,81.551,97.557,90.063,98.619z"/>
	</g>
	<path d="M87.84,42.555c-0.537-3.304-3.653-5.544-6.959-5.005c-3.3,0.541-5.541,3.653-5,6.957c0.351,2.164,1.808,3.868,3.7,4.64
		c0.412,3.491,0.952,8.004,1.263,10.225l5.675-0.792c-0.296-2.138-0.833-6.593-1.241-10.06C87.155,47.231,88.236,44.95,87.84,42.555
		z"/>
	<g>
		<path d="M58.668,123.119c1.255,1.973,2.53,3.896,3.803,5.757c4.601-2.559,10.327-4.766,17.787-3.833
			c4.835,0.605,11.568,3.392,16.544,8.013c1.716-1.519,3.451-3.096,5.173-4.726c-4.896-4.608-11.875-8.937-20.799-10.054
			C72.173,117.152,64.625,119.739,58.668,123.119z"/>
	</g>
	<g>
		<path d="M65.792,132.188c1.477,2.071,2.903,4.019,4.234,5.828c2.449-1.874,5.669-2.247,8.66-1.874
			c2.966,0.37,6.78,1.911,8.145,3.961c1.756-1.451,3.64-3.017,5.606-4.689c-2.874-2.463-6.949-5.377-12.89-6.121
			C73.672,128.562,69.237,130.472,65.792,132.188z"/>
	</g>
	<g>
		<path d="M82.431,143.196c-0.057-0.21-0.139-0.953-0.224-1.15c-0.005,0-0.008-0.546-0.009-0.546c0,0,0.001,0,0.004,0
			c-0.636,0-2.017-2.041-3.753-2.258c-1.648-0.206-3.192,0.715-4.181,1.86c-0.146,0.173-0.279,0.491-0.401,0.683
			c-0.122,0.197-0.221,0.474-0.313,0.688c-0.16,0.376-0.292,0.806-0.347,1.231c-0.109,0.883,0.059,1.758,0.423,2.511
			c0.299,0.627,0.738,1.184,1.287,1.625c0.666,0.531,1.483,0.907,2.402,1.021c0.506,0.062,0.996,0.027,1.469-0.06
			c1.488-0.274,2.74-1.229,3.366-2.568c0.193-0.413,0.344-0.849,0.404-1.327C82.631,144.316,82.577,143.736,82.431,143.196z"/>
	</g>
	<path d="M154.742,84.056c-0.929-3.76-9.751-5.103-23.404-2.454c-3.173,0.618-6.023,1.491-8.539,2.47
		c-3.661-15.556-16.632-27.969-33.394-30.062c-1.648-0.207-3.288-0.307-4.905-0.307c-19.551,0-36.542,14.596-39.027,34.483
		c-0.051,0.414-0.069,0.847-0.094,1.279c-0.071,1.256-0.023,2.579,0.124,3.955c-2.744,0.125-5.782,0.497-9.02,1.267
		c-13.23,3.153-20.546,7.917-19.856,11.639c0.691,3.723,11.253,6.816,20.312,4.158c3.584-1.049,7.742-3.195,11.537-5.495
		c0.234,0.621,0.477,1.241,0.73,1.862c0.037,0.086,0.069,0.169,0.108,0.259c0.828,2,1.769,4.01,2.78,6.007
		c1.113,2.201,2.315,4.386,3.58,6.538c5.798-3.343,12.849-5.637,20.91-5.637c1.761,0,3.57,0.108,5.427,0.339
		c10.267,1.284,18.259,5.834,24.059,11.381c1.855-1.88,3.661-3.809,5.359-5.775c2.031-2.349,3.914-4.745,5.572-7.155
		c0.071-0.105,0.142-0.21,0.213-0.315c0.528-0.784,1.041-1.568,1.519-2.355c0.509-0.836,0.975-1.664,1.417-2.488
		c1.815-3.39,3.05-6.667,3.429-9.711c0.074-0.596,0.117-1.188,0.154-1.776c4.735,0.606,9.851,0.911,13.854,0.346
		C147.143,95.157,155.675,87.818,154.742,84.056z M112.418,86.507c-1.336,10.741-10.517,18.625-21.074,18.625
		c-0.88,0-1.763-0.056-2.652-0.167c-11.63-1.451-19.907-12.093-18.457-23.724c1.341-10.739,10.52-18.622,21.077-18.623
		c0.871,0,1.757,0.054,2.646,0.165C105.593,64.235,113.872,74.879,112.418,86.507z"/>
</g>
</svg>
