<?xml version="1.0" encoding="utf-8"?>
<!-- Generator: Adobe Illustrator 16.0.0, SVG Export Plug-In . SVG Version: 6.00 Build 0)  -->
<!DOCTYPE svg PUBLIC "-//W3C//DTD SVG 1.1//EN" "http://www.w3.org/Graphics/SVG/1.1/DTD/svg11.dtd">
<svg version="1.1" id="Layer_1" xmlns="http://www.w3.org/2000/svg" xmlns:xlink="http://www.w3.org/1999/xlink" x="0px" y="0px"
	 width="50px" height="50px" viewBox="0 0 50 50" enable-background="new 0 0 50 50" xml:space="preserve">
<g>
	<path fill="#FFFFFF" d="M27.836,15.95c-0.204-0.026-0.409-0.038-0.612-0.038c-2.47,0-4.562,1.85-4.868,4.303
		c-0.335,2.687,1.577,5.146,4.264,5.482c0.203,0.025,0.41,0.038,0.614,0.038c2.469,0,4.562-1.85,4.868-4.303
		c0.162-1.299-0.192-2.585-0.999-3.622C30.295,16.772,29.136,16.112,27.836,15.95z"/>
	<g>
		<circle fill="#FFFFFF" cx="27.437" cy="20.614" r="4.911"/>
	</g>
	<path fill="#FFFFFF" d="M26.125,7.751c-0.17-1.045-1.156-1.754-2.202-1.583c-1.044,0.171-1.753,1.156-1.582,2.201
		c0.111,0.685,0.572,1.224,1.17,1.468c0.13,1.104,0.301,2.532,0.399,3.235l1.795-0.25c-0.094-0.676-0.264-2.086-0.393-3.183
		C25.908,9.23,26.25,8.509,26.125,7.751z"/>
	<g>
		<path fill="#FFFFFF" d="M16.896,33.238c0.397,0.624,0.8,1.232,1.203,1.821c1.456-0.81,3.267-1.508,5.627-1.213
			c1.53,0.191,3.66,1.073,5.234,2.535c0.543-0.48,1.092-0.979,1.637-1.495c-1.549-1.458-3.757-2.827-6.58-3.181
			C21.168,31.351,18.781,32.169,16.896,33.238z"/>
	</g>
	<g>
		<path fill="#FFFFFF" d="M19.15,36.107c0.467,0.655,0.918,1.271,1.339,1.844c0.775-0.593,1.793-0.711,2.74-0.593
			c0.938,0.117,2.145,0.604,2.577,1.253c0.556-0.459,1.151-0.954,1.773-1.483c-0.909-0.779-2.198-1.701-4.078-1.937
			C21.643,34.96,20.24,35.564,19.15,36.107z"/>
	</g>
	<g>
		<path fill="#FFFFFF" d="M24.414,39.59c-0.018-0.066-0.044,0.172-0.071,0.109C24.341,39.699,24.34,40,24.34,40c0,0,0,0,0.001,0
			c-0.201,0-0.638-1.119-1.188-1.188c-0.521-0.065-1.01-0.011-1.323,0.352c-0.046,0.055-0.088,0.037-0.127,0.098
			c-0.039,0.062-0.07,0.091-0.099,0.158c-0.051,0.119-0.092,0.226-0.11,0.36c-0.035,0.279,0.019,0.541,0.134,0.779
			c0.095,0.198,0.233,0.367,0.407,0.507c0.21,0.168,0.469,0.283,0.76,0.319c0.16,0.02,0.315,0.007,0.465-0.021
			c0.471-0.087,0.867-0.391,1.065-0.814c0.061-0.131,0.109-0.269,0.128-0.42C24.477,39.944,24.46,39.761,24.414,39.59z"/>
	</g>
	<path fill="#FFFFFF" d="M47.29,20.88c-0.294-1.189-3.085-1.614-7.404-0.776c-1.004,0.195-1.905,0.472-2.701,0.781
		c-1.158-4.921-5.262-8.848-10.564-9.51c-0.521-0.065-1.04-0.097-1.552-0.097c-6.185,0-11.561,4.618-12.347,10.909
		c-0.016,0.131-0.022,0.268-0.03,0.405c-0.022,0.397-0.007,0.816,0.039,1.251c-0.868,0.04-1.829,0.157-2.854,0.401
		c-4.186,0.998-6.5,2.504-6.282,3.682c0.219,1.178,3.56,2.156,6.426,1.315c1.134-0.332,2.449-1.011,3.65-1.738
		c0.074,0.196,0.151,0.393,0.231,0.589c0.012,0.027,0.022,0.054,0.034,0.082c0.262,0.633,0.56,1.269,0.879,1.9
		c0.352,0.696,0.732,1.388,1.132,2.068c1.834-1.058,4.065-1.783,6.615-1.783c0.557,0,1.129,0.034,1.717,0.107
		c3.248,0.406,5.776,1.846,7.611,3.601c0.587-0.595,1.158-1.205,1.695-1.827c0.643-0.743,1.238-1.501,1.763-2.264
		c0.022-0.033,0.045-0.066,0.067-0.1c0.167-0.248,0.329-0.496,0.48-0.745c0.161-0.265,0.309-0.526,0.448-0.787
		c0.574-1.072,0.965-2.109,1.085-3.072c0.023-0.188,0.037-0.376,0.049-0.562c1.498,0.192,3.116,0.288,4.383,0.109
		C44.886,24.392,47.585,22.07,47.29,20.88z M33.9,21.656c-0.423,3.398-3.327,5.892-6.667,5.892c-0.278,0-0.558-0.018-0.839-0.053
		c-3.679-0.459-6.298-3.826-5.839-7.505c0.424-3.397,3.328-5.891,6.668-5.892c0.275,0,0.556,0.017,0.837,0.052
		C31.741,14.61,34.36,17.977,33.9,21.656z"/>
</g>
</svg>
